<svg width="21" height="36" viewBox="0 0 21 36" fill="none" xmlns="http://www.w3.org/2000/svg">
    <path d="M9.31501 32.3075C9.39146 32.4185 9.49375 32.5093 9.61308 32.572C9.73241 32.6347 9.8652 32.6675 10 32.6675C10.1348 32.6675 10.2676 32.6347 10.3869 32.572C10.5063 32.5093 10.6086 32.4185 10.685 32.3075L18.185 21.4741C18.2718 21.3492 18.3227 21.2028 18.3322 21.051C18.3417 20.8991 18.3094 20.7476 18.2387 20.6128C18.1681 20.478 18.0619 20.3652 17.9317 20.2865C17.8015 20.2078 17.6522 20.1664 17.5 20.1666H2.50001C2.34821 20.1673 2.19946 20.2092 2.06974 20.2881C1.94003 20.3669 1.83426 20.4797 1.76382 20.6141C1.69337 20.7486 1.66091 20.8997 1.66993 21.0512C1.67895 21.2028 1.72911 21.349 1.81501 21.4741L9.31501 32.3075Z" fill="#013E40"/>
    <path d="M10.7364 3.82438C10.6584 3.71445 10.5548 3.62512 10.4346 3.56411C10.3144 3.50309 10.1812 3.47221 10.0464 3.47413C9.91157 3.47604 9.77926 3.51069 9.66083 3.5751C9.54241 3.63951 9.44141 3.73174 9.36655 3.84385L2.02123 14.7826C1.9362 14.9088 1.88737 15.0559 1.88006 15.2079C1.87274 15.3598 1.90722 15.5109 1.97973 15.6447C2.05225 15.7784 2.16003 15.8897 2.29138 15.9665C2.42272 16.0433 2.5726 16.0827 2.72473 16.0803L17.7232 15.8672C17.875 15.8644 18.0231 15.8203 18.1517 15.7396C18.2803 15.6589 18.3845 15.5447 18.453 15.4093C18.5215 15.2738 18.5518 15.1222 18.5406 14.9708C18.5295 14.8195 18.4772 14.674 18.3896 14.5501L10.7364 3.82438Z" fill="#6429D5"/>
</svg>