<!-- <svg width="25" height="25" viewBox="0 0 30 30" fill="none" xmlns="http://www.w3.org/2000/svg">
    <path d="M10 30H3.33333C1.5 30 0 28.5 0 26.6667V3.33333C0 1.5 1.5 0 3.33333 0H10C11.8333 0 13.3333 1.5 13.3333 3.33333V26.6667C13.3333 28.5 11.8333 30 10 30ZM20 30H26.6667C28.5 30 30 28.5 30 26.6667V18.3333C30 16.5 28.5 15 26.6667 15H20C18.1667 15 16.6667 16.5 16.6667 18.3333V26.6667C16.6667 28.5 18.1667 30 20 30ZM30 8.33333V3.33333C30 1.5 28.5 0 26.6667 0H20C18.1667 0 16.6667 1.5 16.6667 3.33333V8.33333C16.6667 10.1667 18.1667 11.6667 20 11.6667H26.6667C28.5 11.6667 30 10.1667 30 8.33333Z" fill="#C4C4C4"/>
</svg> -->

<!-- <svg width="17" height="13" viewBox="0 0 17 13" fill="none" xmlns="http://www.w3.org/2000/svg">
    <path d="M6 13H11V7H6V13ZM0 13H5V0H0V13ZM12 13H17V7H12V13ZM6 0V6H17V0H6Z" fill="#C4C4C4"/>
</svg> -->

<svg width="19" height="19" viewBox="0 0 19 19" fill="none" xmlns="http://www.w3.org/2000/svg">
    <path d="M6.33333 19H2.11111C0.95 19 0 18.05 0 16.8889V2.11111C0 0.95 0.95 0 2.11111 0H6.33333C7.49444 0 8.44444 0.95 8.44444 2.11111V16.8889C8.44444 18.05 7.49444 19 6.33333 19ZM12.6667 19H16.8889C18.05 19 19 18.05 19 16.8889V11.6111C19 10.45 18.05 9.5 16.8889 9.5H12.6667C11.5056 9.5 10.5556 10.45 10.5556 11.6111V16.8889C10.5556 18.05 11.5056 19 12.6667 19ZM19 5.27778V2.11111C19 0.95 18.05 0 16.8889 0H12.6667C11.5056 0 10.5556 0.95 10.5556 2.11111V5.27778C10.5556 6.43889 11.5056 7.38889 12.6667 7.38889H16.8889C18.05 7.38889 19 6.43889 19 5.27778Z" fill="#C4C4C4"/>
</svg>


